<?xml version="1.0" encoding="utf-8"?>
<!-- Generator: Adobe Illustrator 17.0.0, SVG Export Plug-In . SVG Version: 6.00 Build 0)  -->
<!DOCTYPE svg PUBLIC "-//W3C//DTD SVG 1.1//EN" "http://www.w3.org/Graphics/SVG/1.1/DTD/svg11.dtd">
<svg version="1.1" id="Layer_1" xmlns="http://www.w3.org/2000/svg" xmlns:xlink="http://www.w3.org/1999/xlink" x="0px" y="0px"
	 width="30px" height="30px" viewBox="0 0 30 30" enable-background="new 0 0 30 30" xml:space="preserve">
<g>
	<path fill="#FFFFFF" d="M14.766,17.651h-0.707c-0.367,0-0.664-0.297-0.664-0.664c0-0.136,0.055-0.267,0.152-0.361
		c0.411-0.4,0.757-0.938,1.007-1.517c0.051,0.037,0.106,0.065,0.167,0.065c0.397,0,0.863-0.877,0.863-1.475
		c0-0.598-0.055-1.083-0.452-1.083c-0.047,0-0.096,0.008-0.147,0.021c-0.028-1.621-0.438-3.643-2.913-3.643
		c-2.583,0-2.884,2.019-2.913,3.638c-0.036-0.007-0.073-0.015-0.106-0.015c-0.398,0-0.452,0.485-0.452,1.083
		c0,0.598,0.466,1.475,0.863,1.475c0.049,0,0.095-0.014,0.137-0.038c0.249,0.569,0.59,1.097,0.995,1.492
		c0.097,0.095,0.152,0.225,0.152,0.361c0,0.367-0.297,0.664-0.664,0.664H9.377c-1.512,0-2.737,1.225-2.737,2.737v0.759
		c0,0.478,0.387,0.864,0.864,0.864h9.134c0.478,0,0.864-0.387,0.864-0.864v-0.759C17.503,18.876,16.278,17.651,14.766,17.651z"/>
	<path fill="#FFFFFF" d="M22.961,10.14h-7.66c0.221,0.489,0.379,1.092,0.445,1.837c0.164,0.101,0.287,0.264,0.387,0.46h6.829
		c0.354,0,0.64-0.287,0.64-0.64v-1.016C23.602,10.428,23.315,10.14,22.961,10.14z"/>
	<path fill="#FFFFFF" d="M22.961,14.326h-6.672c-0.181,0.684-0.628,1.4-1.244,1.591c-0.018,0.034-0.039,0.064-0.058,0.097v0.609
		h7.974c0.354,0,0.64-0.287,0.64-0.64v-1.016C23.602,14.612,23.315,14.326,22.961,14.326z"/>
	<path fill="#FFFFFF" d="M22.961,18.511h-5.208c0.343,0.544,0.545,1.186,0.545,1.876v0.421h4.663c0.354,0,0.64-0.287,0.64-0.64
		v-1.016C23.602,18.798,23.315,18.511,22.961,18.511z"/>
	<path fill="#FFFFFF" d="M25.714,3.755H4.528c-2.173,0-3.934,1.761-3.934,3.934v15.624c0,2.173,1.761,3.934,3.934,3.934h21.186
		c2.173,0,3.934-1.761,3.934-3.934V7.689C29.648,5.516,27.887,3.755,25.714,3.755z M27.791,23.313c0,1.145-0.932,2.077-2.077,2.077
		H4.528c-1.145,0-2.077-0.932-2.077-2.077V7.689c0-1.145,0.932-2.077,2.077-2.077h21.186c1.145,0,2.077,0.932,2.077,2.077
		C27.791,7.689,27.791,23.313,27.791,23.313z"/>
</g>
</svg>
