<?xml version="1.0" encoding="utf-8"?>
<!-- Generator: Adobe Illustrator 17.0.0, SVG Export Plug-In . SVG Version: 6.00 Build 0)  -->
<!DOCTYPE svg PUBLIC "-//W3C//DTD SVG 1.1//EN" "http://www.w3.org/Graphics/SVG/1.1/DTD/svg11.dtd">
<svg version="1.1" id="Layer_1" xmlns="http://www.w3.org/2000/svg" xmlns:xlink="http://www.w3.org/1999/xlink" x="0px" y="0px"
	 width="60px" height="60px" viewBox="0 0 60 60" enable-background="new 0 0 60 60" xml:space="preserve">
<g>
	<path fill="#FFFFFF" d="M29.579,36.581h-1.384c-0.718,0-1.3-0.582-1.3-1.3c0-0.267,0.107-0.522,0.297-0.707
		c0.805-0.784,1.482-1.836,1.971-2.97c0.1,0.073,0.207,0.126,0.328,0.126c0.776,0,1.69-1.717,1.69-2.887s-0.107-2.119-0.885-2.119
		c-0.093,0-0.189,0.016-0.289,0.041c-0.055-3.174-0.857-7.132-5.702-7.132c-5.056,0-5.645,3.952-5.702,7.122
		c-0.071-0.014-0.142-0.03-0.208-0.03c-0.778,0-0.885,0.949-0.885,2.119s0.912,2.887,1.69,2.887c0.096,0,0.185-0.027,0.269-0.075
		c0.488,1.115,1.156,2.148,1.948,2.921c0.191,0.185,0.297,0.44,0.297,0.707c0,0.718-0.582,1.3-1.3,1.3h-1.386
		c-2.96,0-5.359,2.399-5.359,5.359v1.485c0,0.935,0.757,1.692,1.692,1.692h17.882c0.935,0,1.692-0.757,1.692-1.692v-1.485
		C34.938,38.98,32.539,36.581,29.579,36.581z"/>
	<path fill="#FFFFFF" d="M45.623,21.878H30.626c0.433,0.958,0.743,2.137,0.871,3.596c0.321,0.198,0.561,0.516,0.757,0.901h13.369
		c0.693,0,1.254-0.561,1.254-1.254v-1.989C46.877,22.441,46.316,21.878,45.623,21.878z"/>
	<path fill="#FFFFFF" d="M45.623,30.072H32.56c-0.354,1.339-1.229,2.741-2.436,3.115c-0.036,0.066-0.077,0.125-0.114,0.191v1.191
		h15.611c0.693,0,1.254-0.561,1.254-1.254v-1.989C46.877,30.633,46.316,30.072,45.623,30.072z"/>
	<path fill="#FFFFFF" d="M45.623,38.266H35.428c0.671,1.065,1.067,2.322,1.067,3.672v0.825h9.129c0.693,0,1.254-0.561,1.254-1.254
		V39.52C46.877,38.827,46.316,38.266,45.623,38.266z"/>
	<path fill="#FFFFFF" d="M51.012,9.377H9.536c-4.254,0-7.702,3.448-7.702,7.702v30.588c0,4.254,3.448,7.702,7.702,7.702h41.476
		c4.254,0,7.702-3.448,7.702-7.702V17.079C58.714,12.824,55.266,9.377,51.012,9.377z M55.078,47.667
		c0,2.242-1.824,4.066-4.066,4.066H9.536c-2.242,0-4.066-1.824-4.066-4.066V17.079c0-2.242,1.824-4.066,4.066-4.066h41.476
		c2.242,0,4.066,1.824,4.066,4.066C55.078,17.079,55.078,47.667,55.078,47.667z"/>
</g>
</svg>
