<?xml version="1.0" encoding="utf-8"?>
<!-- Generator: Adobe Illustrator 17.0.0, SVG Export Plug-In . SVG Version: 6.00 Build 0)  -->
<!DOCTYPE svg PUBLIC "-//W3C//DTD SVG 1.1//EN" "http://www.w3.org/Graphics/SVG/1.1/DTD/svg11.dtd">
<svg version="1.1" id="Layer_1" xmlns="http://www.w3.org/2000/svg" xmlns:xlink="http://www.w3.org/1999/xlink" x="0px" y="0px"
	 width="60px" height="60px" viewBox="0 0 60 60" enable-background="new 0 0 60 60" xml:space="preserve">
<g>
	<path fill="#FFFFFF" d="M33.583,15.507c-0.653-0.764-1.607-1.205-2.612-1.205c-1.005,0-1.959,0.441-2.612,1.205L13.707,32.683
		c-0.91,1.066-1.301,2.48-1.069,3.862l2.66,15.866c0.277,1.654,1.709,2.856,3.386,2.856h12.779c-0.004-0.06,0.005-0.082,0.005-0.135
		v-11.52c0-0.748,0.595-1.362,1.343-1.362h6.157c0.748,0,1.359,0.615,1.359,1.362v11.655h2.933c1.677,0,3.109-1.202,3.386-2.856
		l2.66-15.87c0.232-1.383-0.159-2.792-1.07-3.858L33.583,15.507z M27.489,47.704c0,0.748-0.607,1.355-1.355,1.355h-4.703
		c-0.748,0-1.355-0.607-1.355-1.355v-4.703c0-0.748,0.606-1.355,1.355-1.355h4.703c0.748,0,1.355,0.607,1.355,1.355V47.704z"/>
	<path fill="#FFFFFF" d="M56.1,28.691L37.898,8.446c-1.764-1.961-4.294-3.113-6.926-3.076c-2.637,0.007-5.157,1.14-6.91,3.109
		L6.052,28.701c-1.047,1.177-0.942,2.978,0.233,4.026c0.544,0.484,1.221,0.722,1.896,0.722c0.784,0,1.567-0.322,2.13-0.955
		l18.01-20.212c0.677-0.76,1.648-1.189,2.665-1.189c0.003,0,0.007,0,0.009,0c1.015,0,1.985,0.422,2.663,1.176l18.202,20.24
		c1.052,1.173,2.857,1.265,4.026,0.211C57.057,31.668,57.152,29.863,56.1,28.691z"/>
</g>
</svg>
