<?xml version="1.0" encoding="utf-8"?>
<!-- Generator: Adobe Illustrator 17.0.0, SVG Export Plug-In . SVG Version: 6.00 Build 0)  -->
<!DOCTYPE svg PUBLIC "-//W3C//DTD SVG 1.1//EN" "http://www.w3.org/Graphics/SVG/1.1/DTD/svg11.dtd">
<svg version="1.1" id="Layer_1" xmlns="http://www.w3.org/2000/svg" xmlns:xlink="http://www.w3.org/1999/xlink" x="0px" y="0px"
	 width="30px" height="30px" viewBox="0 0 30 30" enable-background="new 0 0 30 30" xml:space="preserve">
<g>
	<path fill="#FFFFFF" d="M17.051,6.375c-0.364-0.438-0.895-0.691-1.455-0.691c-0.56,0-1.091,0.253-1.455,0.691L5.98,16.223
		c-0.507,0.611-0.725,1.422-0.596,2.215l1.482,9.098c0.155,0.948,0.952,1.638,1.886,1.638h7.118
		c-0.002-0.034,0.003-0.047,0.003-0.077V22.49c0-0.429,0.331-0.781,0.748-0.781h3.429c0.417,0,0.757,0.352,0.757,0.781v6.683h1.634
		c0.934,0,1.732-0.689,1.886-1.638l1.482-9.1c0.129-0.793-0.089-1.601-0.596-2.212L17.051,6.375z M13.657,24.837
		c0,0.429-0.338,0.777-0.755,0.777h-2.62c-0.417,0-0.755-0.348-0.755-0.777V22.14c0-0.429,0.338-0.777,0.755-0.777h2.62
		c0.417,0,0.755,0.348,0.755,0.777V24.837z"/>
	<path fill="#FFFFFF" d="M29.593,13.934L19.455,2.325c-0.982-1.125-2.392-1.785-3.858-1.764c-1.469,0.004-2.872,0.653-3.849,1.783
		L1.716,13.94c-0.583,0.675-0.525,1.708,0.13,2.308c0.303,0.278,0.68,0.414,1.056,0.414c0.437,0,0.873-0.185,1.186-0.548
		L14.12,4.525c0.377-0.436,0.918-0.682,1.485-0.682c0.002,0,0.004,0,0.005,0c0.565,0,1.106,0.242,1.483,0.674l10.139,11.606
		c0.586,0.673,1.591,0.725,2.243,0.121C30.126,15.641,30.179,14.606,29.593,13.934z"/>
</g>
</svg>
