<?xml version="1.0" encoding="utf-8"?>
<!-- Generator: Adobe Illustrator 17.0.0, SVG Export Plug-In . SVG Version: 6.00 Build 0)  -->
<!DOCTYPE svg PUBLIC "-//W3C//DTD SVG 1.1//EN" "http://www.w3.org/Graphics/SVG/1.1/DTD/svg11.dtd">
<svg version="1.1" id="Layer_1" xmlns="http://www.w3.org/2000/svg" xmlns:xlink="http://www.w3.org/1999/xlink" x="0px" y="0px"
	 width="60px" height="60px" viewBox="0 0 60 60" enable-background="new 0 0 60 60" xml:space="preserve">
<g>
	<path fill="#1D1D1B" d="M2.791,7.828v45.979h52.548V7.828H2.791z M52.055,50.523H12.644V11.112h39.411V50.523z"/>
	<path fill="#1D1D1B" d="M23.799,47.239c2.527,0,4.638-1.293,5.343-3.06v-2.499l-0.006-0.016V24.243l13.137-2.983v10.725
		c-0.52-0.125-1.065-0.212-1.642-0.212c-3.098,0-5.613,1.931-5.613,4.311s2.514,4.31,5.613,4.31c2.091,0,3.894-0.885,4.856-2.187
		V13.999l-3.214,0.584l-13.137,2.989l-3.284,0.596v20.757c-0.635-0.195-1.328-0.308-2.053-0.308c-3.098,0-5.613,1.931-5.613,4.311
		S20.701,47.239,23.799,47.239z"/>
</g>
</svg>
