<?xml version="1.0" encoding="utf-8"?>
<!-- Generator: Adobe Illustrator 17.0.0, SVG Export Plug-In . SVG Version: 6.00 Build 0)  -->
<!DOCTYPE svg PUBLIC "-//W3C//DTD SVG 1.1//EN" "http://www.w3.org/Graphics/SVG/1.1/DTD/svg11.dtd">
<svg version="1.1" id="Layer_1" xmlns="http://www.w3.org/2000/svg" xmlns:xlink="http://www.w3.org/1999/xlink" x="0px" y="0px"
	 width="60px" height="60px" viewBox="0 0 60 60" enable-background="new 0 0 60 60" xml:space="preserve">
<path fill="#FFFFFF" d="M25.369,40.755c0-1.517-1.232-2.749-2.747-2.749c-1.519,0-2.751,1.232-2.751,2.749
	c0,1.517,1.232,2.749,2.751,2.749C24.137,43.504,25.369,42.274,25.369,40.755z M23.185,42.508c-0.778,0-1.41-0.632-1.41-1.414
	c0-0.776,0.632-1.41,1.41-1.41s1.408,0.632,1.408,1.41C24.593,41.874,23.963,42.508,23.185,42.508z M33.999,40.755
	c0,1.517,1.226,2.749,2.745,2.749c1.519,0,2.749-1.232,2.749-2.749c0-1.517-1.23-2.749-2.749-2.749
	C35.228,38.005,33.999,39.238,33.999,40.755z M36.183,39.684c0.778,0,1.41,0.632,1.41,1.41c-0.002,0.78-0.632,1.414-1.41,1.414
	c-0.778,0-1.41-0.632-1.41-1.414C34.773,40.318,35.405,39.684,36.183,39.684z M23.608,47.72h11.877
	C35.485,47.72,29.735,54.036,23.608,47.72z M53.214,26.341l0.004-0.058c0.027-0.363,0.051-0.727,0.051-1.096
	c0-6.969-2.541-9.952-7.341-14.318c-4.561-4.142-9.248-6.415-16.112-6.415c-6.86,0-11.547,2.274-16.108,6.415
	c-4.801,4.36-7.345,7.349-7.345,14.318c0,0.269,0.018,0.538,0.029,0.809l0.012,0.345c-1.226,0.068-2.209,1.022-2.209,2.211v14.841
	c0,1.24,1.037,2.244,2.326,2.244h0.796c0.458,0.456,1.086,0.72,1.745,0.72h2.377c0.105,0,0.211-0.014,0.314-0.029
	c3.738,6.708,10.315,11.173,17.795,11.173c7.521,0,14.133-4.51,17.861-11.276c0.246,0.078,0.507,0.131,0.78,0.131h2.381
	c0.661,0,1.281-0.257,1.73-0.72h0.805c1.285,0,2.324-1.006,2.324-2.244V28.55C55.427,27.363,54.442,26.402,53.214,26.341z
	 M45.732,43.009c-3.022,6.674-9.133,11.241-16.186,11.241c-6.665,0-12.493-4.081-15.662-10.167c0.002-0.027,0.006-0.051,0.006-0.078
	V33.53h3.738l8.248-6.132l-3.301,6.189c0,0,14.063,2.923,23.157,0.583C45.732,34.17,45.732,43.009,45.732,43.009z M49.294,25.594
	c-2.987-8.223-10.711-12.733-19.749-12.733c-8.997,0-16.695,4.477-19.704,12.639c0.187-11.036,7.373-17.83,20.46-17.83
	c11.752,0,19.302,6.793,19.485,17.923H49.294z"/>
</svg>
