<?xml version="1.0" encoding="utf-8"?>
<!-- Generator: Adobe Illustrator 17.0.0, SVG Export Plug-In . SVG Version: 6.00 Build 0)  -->
<!DOCTYPE svg PUBLIC "-//W3C//DTD SVG 1.1//EN" "http://www.w3.org/Graphics/SVG/1.1/DTD/svg11.dtd">
<svg version="1.1" id="Layer_1" xmlns="http://www.w3.org/2000/svg" xmlns:xlink="http://www.w3.org/1999/xlink" x="0px" y="0px"
	 width="30px" height="30px" viewBox="0 0 30 30" enable-background="new 0 0 30 30" xml:space="preserve">
<path fill="#FFFFFF" d="M13.409,20.037c0-0.837-0.68-1.518-1.516-1.518c-0.838,0-1.519,0.68-1.519,1.518
	c0,0.837,0.68,1.518,1.519,1.518C12.729,21.554,13.409,20.875,13.409,20.037z M12.204,21.004c-0.429,0-0.778-0.349-0.778-0.78
	c0-0.428,0.349-0.778,0.778-0.778s0.777,0.349,0.777,0.778C12.981,20.655,12.633,21.004,12.204,21.004z M18.173,20.037
	c0,0.837,0.677,1.518,1.515,1.518s1.518-0.68,1.518-1.518c0-0.837-0.679-1.518-1.518-1.518C18.851,18.519,18.173,19.2,18.173,20.037
	z M19.378,19.446c0.429,0,0.778,0.349,0.778,0.778c-0.001,0.431-0.349,0.78-0.778,0.78c-0.429,0-0.778-0.349-0.778-0.78
	C18.6,19.796,18.949,19.446,19.378,19.446z M12.437,23.881h6.556C18.993,23.881,15.819,27.367,12.437,23.881z M28.778,12.081
	l0.002-0.032c0.015-0.2,0.028-0.401,0.028-0.605c0-3.847-1.402-5.493-4.052-7.903C22.239,1.255,19.652,0,15.863,0
	C12.077,0,9.49,1.255,6.972,3.541c-2.65,2.407-4.054,4.056-4.054,7.903c0,0.149,0.01,0.297,0.016,0.447l0.006,0.19
	c-0.677,0.038-1.219,0.564-1.219,1.22v8.191c0,0.685,0.573,1.239,1.284,1.239h0.439c0.253,0.252,0.599,0.397,0.963,0.397h1.312
	c0.058,0,0.116-0.008,0.173-0.016c2.063,3.702,5.693,6.167,9.822,6.167c4.151,0,7.801-2.489,9.859-6.224
	c0.136,0.043,0.28,0.072,0.431,0.072h1.314c0.365,0,0.707-0.142,0.955-0.397h0.444c0.709,0,1.283-0.555,1.283-1.239v-8.191
	C30,12.645,29.456,12.114,28.778,12.081z M24.649,21.281c-1.668,3.684-5.041,6.205-8.934,6.205c-3.679,0-6.896-2.253-8.645-5.612
	c0.001-0.015,0.003-0.028,0.003-0.043v-5.782h2.063l4.553-3.385l-1.822,3.416c0,0,7.762,1.613,12.782,0.322
	C24.649,16.402,24.649,21.281,24.649,21.281z M26.615,11.669c-1.649-4.539-5.912-7.028-10.9-7.028
	c-4.966,0-9.215,2.471-10.876,6.976c0.103-6.092,4.069-9.841,11.293-9.841c6.487,0,10.654,3.75,10.755,9.893H26.615z"/>
</svg>
