<?xml version="1.0" encoding="utf-8"?>
<!-- Generator: Adobe Illustrator 17.0.0, SVG Export Plug-In . SVG Version: 6.00 Build 0)  -->
<!DOCTYPE svg PUBLIC "-//W3C//DTD SVG 1.1//EN" "http://www.w3.org/Graphics/SVG/1.1/DTD/svg11.dtd">
<svg version="1.1" id="Layer_1" xmlns="http://www.w3.org/2000/svg" xmlns:xlink="http://www.w3.org/1999/xlink" x="0px" y="0px"
	 width="250px" height="250px" viewBox="0 0 250 250" enable-background="new 0 0 250 250" xml:space="preserve">
<g>
	<path id="path1" fill="#010101" d="M48.5,205.508c0.718-2.321,0.386-4.899-0.794-7.021c-2.164-4.141-7.419-6.199-11.85-4.799
		c-4.29,1.009-6.912,5.094-6.631,9.231c0.165,4.639,4.145,8.559,8.669,9.133c4.466,0.726,9.319-2.063,10.583-6.468"/>
	<path id="path2" fill="#010101" d="M86.055,189.07c0.817-2.697,0.587-5.64-0.503-8.162c-3.049-7.353-12.325-10.608-19.333-7.065
		c-4.334,2.024-7.279,6.957-6.8,11.858c0.584,6.637,6.415,11.597,12.592,12.182c5.723,0.739,12.239-2.674,14.013-8.712"/>
	<path id="path3" fill="#010101" d="M16.704,213.853c0.523-1.683,0.279-3.548-0.573-5.08c-1.565-2.997-5.366-4.49-8.574-3.477
		c-2.879,0.798-5,3.683-4.802,6.685c0.123,3.351,3.002,6.192,6.278,6.605c3.233,0.525,6.745-1.491,7.658-4.683"/>
	<path id="path4" fill="#010101" d="M186.522,40.601c23.73,7.249,38.645,29.14,36.396,51.374
		c19.954,9.39,30.499,32.515,23.921,54.695l-0.108,0.353c-7.45,24.388-32.88,38.262-56.78,30.96
		c-4.547-1.39-8.717-3.43-12.427-6.012c-11.255,14.398-31.397,21.021-50.868,15.074c-15.534-4.748-26.981-16.347-31.624-30.1
		c-6.257,1.436-12.972,1.34-19.551-0.672c-20.076-6.131-31.386-27.404-25.253-47.485c0.392-1.285,0.868-2.514,1.38-3.726
		c-10.662-9.638-15.534-24.236-11.295-38.11c5.751-18.826,26.193-29.405,46.431-24.529c8.804-10.741,22.995-15.778,36.517-11.648
		c8.51,2.599,15.245,8.379,19.378,15.754C154.779,38.494,170.83,35.809,186.522,40.601L186.522,40.601z"/>
</g>
<text transform="matrix(1 0 0 1 70.812 78.1982)"><tspan x="0" y="0" fill="#FFB400" font-family="'BuxtonSketch'" font-size="31.0616">Shtyp këtu  </tspan><tspan x="47.442" y="37.274" fill="#FFB400" font-family="'BuxtonSketch'" font-size="31.0616">Për</tspan><tspan x="37.295" y="74.548" fill="#FFB400" font-family="'BuxtonSketch'" font-size="31.0616">Meny</tspan></text>
</svg>
