<?xml version="1.0" encoding="utf-8"?>
<!-- Generator: Adobe Illustrator 17.0.0, SVG Export Plug-In . SVG Version: 6.00 Build 0)  -->
<!DOCTYPE svg PUBLIC "-//W3C//DTD SVG 1.1//EN" "http://www.w3.org/Graphics/SVG/1.1/DTD/svg11.dtd">
<svg version="1.1" id="Layer_1" xmlns="http://www.w3.org/2000/svg" xmlns:xlink="http://www.w3.org/1999/xlink" x="0px" y="0px"
	 width="100px" height="100px" viewBox="0 0 100 100" enable-background="new 0 0 100 100" xml:space="preserve">
<g>
	<path id="path1" fill="#010101" d="M19.19,83.747c0.283-0.913,0.152-1.928-0.312-2.763c-0.852-1.629-2.919-2.439-4.663-1.888
		c-1.688,0.397-2.72,2.004-2.609,3.632c0.065,1.825,1.631,3.368,3.411,3.594c1.757,0.286,3.667-0.812,4.164-2.545"/>
	<path id="path2" fill="#010101" d="M33.967,77.279c0.321-1.061,0.231-2.219-0.198-3.212c-1.2-2.893-4.85-4.174-7.607-2.78
		c-1.705,0.797-2.864,2.738-2.676,4.666c0.23,2.612,2.524,4.563,4.955,4.793c2.252,0.291,4.816-1.052,5.514-3.428"/>
	<path id="path3" fill="#010101" d="M6.679,87.031c0.206-0.662,0.11-1.396-0.226-1.999c-0.616-1.179-2.111-1.767-3.374-1.368
		c-1.133,0.314-1.968,1.449-1.889,2.63c0.048,1.319,1.181,2.436,2.47,2.599c1.272,0.207,2.654-0.587,3.013-1.843"/>
	<path id="path4" fill="#010101" d="M73.498,18.86c9.337,2.852,15.206,11.466,14.321,20.214c7.851,3.695,12.001,12.794,9.412,21.521
		l-0.042,0.139C94.257,70.33,84.251,75.79,74.847,72.916c-1.789-0.547-3.43-1.35-4.89-2.366c-4.429,5.665-12.354,8.271-20.015,5.931
		c-6.112-1.868-10.616-6.432-12.443-11.844c-2.462,0.565-5.104,0.527-7.693-0.264c-7.899-2.412-12.35-10.783-9.936-18.684
		c0.154-0.506,0.341-0.989,0.543-1.466c-4.195-3.792-6.112-9.536-4.444-14.995c2.263-7.407,10.306-11.57,18.269-9.652
		c3.464-4.226,9.048-6.208,14.368-4.583c3.348,1.023,5.999,3.297,7.625,6.199C61.008,18.031,67.323,16.975,73.498,18.86
		L73.498,18.86z"/>
</g>
<text transform="matrix(1 0 0 1 25.3445 31.678)"><tspan x="0" y="0" fill="#FFB400" font-family="'MyriadPro-Regular'" font-size="12.7271">Shtyp këtu  </tspan><tspan x="0.083" y="15.272" fill="#FFB400" font-family="'MyriadPro-Regular'" font-size="12.7271">Për të hyrë </tspan><tspan x="6.783" y="30.545" fill="#FFB400" font-family="'MyriadPro-Regular'" font-size="12.7271">në meny</tspan></text>
</svg>
